<svg version="1.1" viewBox="0.0 0.0 759.5433070866142 353.1049868766404" fill="none" stroke="none" stroke-linecap="square" stroke-miterlimit="10" xmlns:xlink="http://www.w3.org/1999/xlink" xmlns="http://www.w3.org/2000/svg"><clipPath id="p.0"><path d="m0 0l759.54333 0l0 353.10498l-759.54333 0l0 -353.10498z" clip-rule="nonzero"/></clipPath><g clip-path="url(#p.0)"><path fill="#000000" fill-opacity="0.0" d="m0 0l759.54333 0l0 353.10498l-759.54333 0z" fill-rule="evenodd"/><path fill="#ead1dc" d="m166.42122 96.75837l0 0c0 -23.129745 18.750366 -41.880104 41.880096 -41.880104l356.64923 0c11.1073 0 21.759644 4.4123535 29.613708 12.266396c7.854065 7.854042 12.266418 18.506416 12.266418 29.613708l0 167.51538c0 23.12976 -18.750366 41.880127 -41.880127 41.880127l-356.64923 0c-23.12973 0 -41.880096 -18.750366 -41.880096 -41.880127z" fill-rule="evenodd"/><path stroke="#000000" stroke-width="1.0" stroke-linejoin="round" stroke-linecap="butt" d="m166.42122 96.75837l0 0c0 -23.129745 18.750366 -41.880104 41.880096 -41.880104l356.64923 0c11.1073 0 21.759644 4.4123535 29.613708 12.266396c7.854065 7.854042 12.266418 18.506416 12.266418 29.613708l0 167.51538c0 23.12976 -18.750366 41.880127 -41.880127 41.880127l-356.64923 0c-23.12973 0 -41.880096 -18.750366 -41.880096 -41.880127z" fill-rule="evenodd"/><path fill="#d9ead3" d="m8.588839 160.65355l56.062996 0l0 41.102356l-56.062996 0z" fill-rule="evenodd"/><path stroke="#000000" stroke-width="1.0" stroke-linejoin="round" stroke-linecap="butt" d="m8.588839 160.65355l56.062996 0l0 41.102356l-56.062996 0z" fill-rule="evenodd"/><path fill="#000000" d="m24.254887 188.12473l5.171875 -6.953125l-4.5625 -6.40625l2.109375 0l2.421875 3.4375q0.75 1.0625 1.078125 1.625q0.4375 -0.71875 1.046875 -1.515625l2.6875 -3.546875l1.921875 0l-4.6875 6.296875l5.0625 7.0625l-2.1875 0l-3.359375 -4.765625q-0.28125 -0.40625 -0.59375 -0.890625q-0.4375 0.734375 -0.625 1.0l-3.359375 4.65625l-2.125 0zm17.56857 0l0 -5.65625l-5.156246 -7.703125l2.15625 0l2.6406212 4.03125q0.71875 1.125 1.34375 2.265625q0.609375 -1.046875 1.46875 -2.359375l2.578125 -3.9375l2.0625 0l-5.328125 7.703125l0 5.65625l-1.765625 0z" fill-rule="nonzero"/><path fill="#cfe2f3" d="m194.61346 93.42795l0 0c0 -7.7406845 6.27507 -14.015747 14.015747 -14.015747l0 0c3.7172089 0 7.2821655 1.476654 9.910629 4.105118c2.6284637 2.6284637 4.105118 6.1934204 4.105118 9.910629l0 0c0 7.7406845 -6.27507 14.015747 -14.015747 14.015747l0 0c-7.740677 0 -14.015747 -6.2750626 -14.015747 -14.015747z" fill-rule="evenodd"/><path stroke="#000000" stroke-width="1.0" stroke-linejoin="round" stroke-linecap="butt" d="m194.61346 93.42795l0 0c0 -7.7406845 6.27507 -14.015747 14.015747 -14.015747l0 0c3.7172089 0 7.2821655 1.476654 9.910629 4.105118c2.6284637 2.6284637 4.105118 6.1934204 4.105118 9.910629l0 0c0 7.7406845 -6.27507 14.015747 -14.015747 14.015747l0 0c-7.740677 0 -14.015747 -6.2750626 -14.015747 -14.015747z" fill-rule="evenodd"/><path fill="#cfe2f3" d="m194.61346 181.20222l0 0c0 -7.740677 6.27507 -14.015747 14.015747 -14.015747l0 0c3.7172089 0 7.2821655 1.476654 9.910629 4.105118c2.6284637 2.6284637 4.105118 6.1934204 4.105118 9.910629l0 0c0 7.740692 -6.27507 14.015747 -14.015747 14.015747l0 0c-7.740677 0 -14.015747 -6.275055 -14.015747 -14.015747z" fill-rule="evenodd"/><path stroke="#000000" stroke-width="1.0" stroke-linejoin="round" stroke-linecap="butt" d="m194.61346 181.20222l0 0c0 -7.740677 6.27507 -14.015747 14.015747 -14.015747l0 0c3.7172089 0 7.2821655 1.476654 9.910629 4.105118c2.6284637 2.6284637 4.105118 6.1934204 4.105118 9.910629l0 0c0 7.740692 -6.27507 14.015747 -14.015747 14.015747l0 0c-7.740677 0 -14.015747 -6.275055 -14.015747 -14.015747z" fill-rule="evenodd"/><path fill="#cfe2f3" d="m194.61346 268.9765l0 0c0 -7.740692 6.27507 -14.015747 14.015747 -14.015747l0 0c3.7172089 0 7.2821655 1.476654 9.910629 4.105133c2.6284637 2.6284485 4.105118 6.1934204 4.105118 9.910614l0 0c0 7.740692 -6.27507 14.015747 -14.015747 14.015747l0 0c-7.740677 0 -14.015747 -6.275055 -14.015747 -14.015747z" fill-rule="evenodd"/><path stroke="#000000" stroke-width="1.0" stroke-linejoin="round" stroke-linecap="butt" d="m194.61346 268.9765l0 0c0 -7.740692 6.27507 -14.015747 14.015747 -14.015747l0 0c3.7172089 0 7.2821655 1.476654 9.910629 4.105133c2.6284637 2.6284485 4.105118 6.1934204 4.105118 9.910614l0 0c0 7.740692 -6.27507 14.015747 -14.015747 14.015747l0 0c-7.740677 0 -14.015747 -6.275055 -14.015747 -14.015747z" fill-rule="evenodd"/><path fill="#cfe2f3" d="m242.83131 93.42795l0 0c0 -7.7406845 6.275055 -14.015747 14.015732 -14.015747l0 0c3.7172241 0 7.2821655 1.476654 9.910645 4.105118c2.6284485 2.6284637 4.1051025 6.1934204 4.1051025 9.910629l0 0c0 7.7406845 -6.275055 14.015747 -14.015747 14.015747l0 0c-7.740677 0 -14.015732 -6.2750626 -14.015732 -14.015747z" fill-rule="evenodd"/><path stroke="#000000" stroke-width="1.0" stroke-linejoin="round" stroke-linecap="butt" d="m242.83131 93.42795l0 0c0 -7.7406845 6.275055 -14.015747 14.015732 -14.015747l0 0c3.7172241 0 7.2821655 1.476654 9.910645 4.105118c2.6284485 2.6284637 4.1051025 6.1934204 4.1051025 9.910629l0 0c0 7.7406845 -6.275055 14.015747 -14.015747 14.015747l0 0c-7.740677 0 -14.015732 -6.2750626 -14.015732 -14.015747z" fill-rule="evenodd"/><path fill="#cfe2f3" d="m242.83131 181.20222l0 0c0 -7.740677 6.275055 -14.015747 14.015732 -14.015747l0 0c3.7172241 0 7.2821655 1.476654 9.910645 4.105118c2.6284485 2.6284637 4.1051025 6.1934204 4.1051025 9.910629l0 0c0 7.740692 -6.275055 14.015747 -14.015747 14.015747l0 0c-7.740677 0 -14.015732 -6.275055 -14.015732 -14.015747z" fill-rule="evenodd"/><path stroke="#000000" stroke-width="1.0" stroke-linejoin="round" stroke-linecap="butt" d="m242.83131 181.20222l0 0c0 -7.740677 6.275055 -14.015747 14.015732 -14.015747l0 0c3.7172241 0 7.2821655 1.476654 9.910645 4.105118c2.6284485 2.6284637 4.1051025 6.1934204 4.1051025 9.910629l0 0c0 7.740692 -6.275055 14.015747 -14.015747 14.015747l0 0c-7.740677 0 -14.015732 -6.275055 -14.015732 -14.015747z" fill-rule="evenodd"/><path fill="#cfe2f3" d="m242.83131 268.9765l0 0c0 -7.740692 6.275055 -14.015747 14.015732 -14.015747l0 0c3.7172241 0 7.2821655 1.476654 9.910645 4.105133c2.6284485 2.6284485 4.1051025 6.1934204 4.1051025 9.910614l0 0c0 7.740692 -6.275055 14.015747 -14.015747 14.015747l0 0c-7.740677 0 -14.015732 -6.275055 -14.015732 -14.015747z" fill-rule="evenodd"/><path stroke="#000000" stroke-width="1.0" stroke-linejoin="round" stroke-linecap="butt" d="m242.83131 268.9765l0 0c0 -7.740692 6.275055 -14.015747 14.015732 -14.015747l0 0c3.7172241 0 7.2821655 1.476654 9.910645 4.105133c2.6284485 2.6284485 4.1051025 6.1934204 4.1051025 9.910614l0 0c0 7.740692 -6.275055 14.015747 -14.015747 14.015747l0 0c-7.740677 0 -14.015732 -6.275055 -14.015732 -14.015747z" fill-rule="evenodd"/><path fill="#cfe2f3" d="m291.04916 137.3151l0 0c0 -7.740692 6.275055 -14.015755 14.015747 -14.015755l0 0c3.7171936 0 7.2821655 1.476654 9.910614 4.105118c2.628479 2.628456 4.105133 6.193428 4.105133 9.910637l0 0c0 7.740677 -6.275055 14.015747 -14.015747 14.015747l0 0c-7.740692 0 -14.015747 -6.27507 -14.015747 -14.015747z" fill-rule="evenodd"/><path stroke="#000000" stroke-width="1.0" stroke-linejoin="round" stroke-linecap="butt" d="m291.04916 137.3151l0 0c0 -7.740692 6.275055 -14.015755 14.015747 -14.015755l0 0c3.7171936 0 7.2821655 1.476654 9.910614 4.105118c2.628479 2.628456 4.105133 6.193428 4.105133 9.910637l0 0c0 7.740677 -6.275055 14.015747 -14.015747 14.015747l0 0c-7.740692 0 -14.015747 -6.27507 -14.015747 -14.015747z" fill-rule="evenodd"/><path fill="#cfe2f3" d="m291.04916 225.08937l0 0c0 -7.740692 6.275055 -14.015747 14.015747 -14.015747l0 0c3.7171936 0 7.2821655 1.476654 9.910614 4.105118c2.628479 2.6284637 4.105133 6.1934204 4.105133 9.910629l0 0c0 7.740677 -6.275055 14.015747 -14.015747 14.015747l0 0c-7.740692 0 -14.015747 -6.27507 -14.015747 -14.015747z" fill-rule="evenodd"/><path stroke="#000000" stroke-width="1.0" stroke-linejoin="round" stroke-linecap="butt" d="m291.04916 225.08937l0 0c0 -7.740692 6.275055 -14.015747 14.015747 -14.015747l0 0c3.7171936 0 7.2821655 1.476654 9.910614 4.105118c2.628479 2.6284637 4.105133 6.1934204 4.105133 9.910629l0 0c0 7.740677 -6.275055 14.015747 -14.015747 14.015747l0 0c-7.740692 0 -14.015747 -6.27507 -14.015747 -14.015747z" fill-rule="evenodd"/><path fill="#000000" fill-opacity="0.0" d="m222.64496 90.37283l20.18898 87.779526" fill-rule="evenodd"/><path stroke="#000000" stroke-width="1.0" stroke-linejoin="round" stroke-linecap="butt" d="m222.64496 90.37283l20.18898 87.779526" fill-rule="evenodd"/><path fill="#000000" fill-opacity="0.0" d="m222.64496 178.15236l20.18898 0" fill-rule="evenodd"/><path stroke="#000000" stroke-width="1.0" stroke-linejoin="round" stroke-linecap="butt" d="m222.64496 178.15236l20.18898 0" fill-rule="evenodd"/><path fill="#000000" fill-opacity="0.0" d="m222.64496 265.9319l20.18898 -87.779526" fill-rule="evenodd"/><path stroke="#000000" stroke-width="1.0" stroke-linejoin="round" stroke-linecap="butt" d="m222.64496 265.9319l20.18898 -87.779526" fill-rule="evenodd"/><path fill="#000000" fill-opacity="0.0" d="m222.64496 178.15761l20.18898 -87.779526" fill-rule="evenodd"/><path stroke="#000000" stroke-width="1.0" stroke-linejoin="round" stroke-linecap="butt" d="m222.64496 178.15761l20.18898 -87.779526" fill-rule="evenodd"/><path fill="#000000" fill-opacity="0.0" d="m222.64496 90.37808l20.18898 0" fill-rule="evenodd"/><path stroke="#000000" stroke-width="1.0" stroke-linejoin="round" stroke-linecap="butt" d="m222.64496 90.37808l20.18898 0" fill-rule="evenodd"/><path fill="#000000" fill-opacity="0.0" d="m222.64496 90.367584l20.18898 175.55905" fill-rule="evenodd"/><path stroke="#000000" stroke-width="1.0" stroke-linejoin="round" stroke-linecap="butt" d="m222.64496 90.367584l20.18898 175.55905" fill-rule="evenodd"/><path fill="#000000" fill-opacity="0.0" d="m222.64496 178.14711l20.18898 87.779526" fill-rule="evenodd"/><path stroke="#000000" stroke-width="1.0" stroke-linejoin="round" stroke-linecap="butt" d="m222.64496 178.14711l20.18898 87.779526" fill-rule="evenodd"/><path fill="#000000" fill-opacity="0.0" d="m222.64496 265.92664l20.18898 0" fill-rule="evenodd"/><path stroke="#000000" stroke-width="1.0" stroke-linejoin="round" stroke-linecap="butt" d="m222.64496 265.92664l20.18898 0" fill-rule="evenodd"/><path fill="#000000" fill-opacity="0.0" d="m222.64496 265.93713l20.18898 -175.55905" fill-rule="evenodd"/><path stroke="#000000" stroke-width="1.0" stroke-linejoin="round" stroke-linecap="butt" d="m222.64496 265.93713l20.18898 -175.55905" fill-rule="evenodd"/><path fill="#000000" fill-opacity="0.0" d="m270.8628 90.391205l20.188995 43.87401" fill-rule="evenodd"/><path stroke="#000000" stroke-width="1.0" stroke-linejoin="round" stroke-linecap="butt" d="m270.8628 90.391205l20.188995 43.87401" fill-rule="evenodd"/><path fill="#000000" fill-opacity="0.0" d="m270.8628 90.385956l20.188995 131.65355" fill-rule="evenodd"/><path stroke="#000000" stroke-width="1.0" stroke-linejoin="round" stroke-linecap="butt" d="m270.8628 90.385956l20.188995 131.65355" fill-rule="evenodd"/><path fill="#000000" fill-opacity="0.0" d="m270.8628 178.13924l20.188995 -43.874023" fill-rule="evenodd"/><path stroke="#000000" stroke-width="1.0" stroke-linejoin="round" stroke-linecap="butt" d="m270.8628 178.13924l20.188995 -43.874023" fill-rule="evenodd"/><path fill="#000000" fill-opacity="0.0" d="m270.8628 178.16548l20.188995 43.874023" fill-rule="evenodd"/><path stroke="#000000" stroke-width="1.0" stroke-linejoin="round" stroke-linecap="butt" d="m270.8628 178.16548l20.188995 43.874023" fill-rule="evenodd"/><path fill="#000000" fill-opacity="0.0" d="m270.8628 265.91876l20.188995 -131.65355" fill-rule="evenodd"/><path stroke="#000000" stroke-width="1.0" stroke-linejoin="round" stroke-linecap="butt" d="m270.8628 265.91876l20.188995 -131.65355" fill-rule="evenodd"/><path fill="#000000" fill-opacity="0.0" d="m270.8628 265.9135l20.188995 -43.87401" fill-rule="evenodd"/><path stroke="#000000" stroke-width="1.0" stroke-linejoin="round" stroke-linecap="butt" d="m270.8628 265.9135l20.188995 -43.87401" fill-rule="evenodd"/><path fill="#fff2cc" d="m383.34515 149.25722l148.8504 0l0 62.519684l-148.8504 0z" fill-rule="evenodd"/><path stroke="#000000" stroke-width="1.0" stroke-linejoin="round" stroke-linecap="butt" d="m383.34515 149.25722l148.8504 0l0 62.519684l-148.8504 0z" fill-rule="evenodd"/><path fill="#000000" d="m437.3458 176.43706l-3.53125 -13.359375l1.8125 0l2.03125 8.765625q0.328125 1.375 0.5625 2.71875q0.5 -2.140625 0.59375 -2.46875l2.546875 -9.015625l2.125 0l1.921875 6.765625q0.71875 2.515625 1.03125 4.71875q0.265625 -1.265625 0.671875 -2.890625l2.09375 -8.59375l1.78125 0l-3.671875 13.359375l-1.703125 0l-2.8125 -10.171875q-0.359375 -1.28125 -0.421875 -1.5625q-0.203125 0.90625 -0.390625 1.5625l-2.828125 10.171875l-1.8125 0zm14.130798 -4.84375q0 -2.6875 1.484375 -3.96875q1.25 -1.078125 3.046875 -1.078125q2.0 0 3.265625 1.3125q1.265625 1.296875 1.265625 3.609375q0 1.859375 -0.5625 2.9375q-0.5625 1.0625 -1.640625 1.65625q-1.0625 0.59375 -2.328125 0.59375q-2.03125 0 -3.28125 -1.296875q-1.25 -1.3125 -1.25 -3.765625zm1.6875 0q0 1.859375 0.796875 2.796875q0.8125 0.921875 2.046875 0.921875q1.21875 0 2.03125 -0.921875q0.8125 -0.9375 0.8125 -2.84375q0 -1.796875 -0.8125 -2.71875q-0.8125 -0.921875 -2.03125 -0.921875q-1.234375 0 -2.046875 0.921875q-0.796875 0.90625 -0.796875 2.765625zm9.281952 4.84375l0 -9.671875l1.46875 0l0 1.46875q0.5625 -1.03125 1.03125 -1.359375q0.484375 -0.328125 1.0625 -0.328125q0.828125 0 1.6875 0.53125l-0.5625 1.515625q-0.609375 -0.359375 -1.203125 -0.359375q-0.546875 0 -0.96875 0.328125q-0.421875 0.328125 -0.609375 0.890625q-0.28125 0.875 -0.28125 1.921875l0 5.0625l-1.625 0zm6.181427 0l0 -13.359375l1.640625 0l0 13.359375l-1.640625 0zm10.457336 0l0 -1.21875q-0.90625 1.4375 -2.703125 1.4375q-1.15625 0 -2.125 -0.640625q-0.96875 -0.640625 -1.5 -1.78125q-0.53125 -1.140625 -0.53125 -2.625q0 -1.453125 0.484375 -2.625q0.484375 -1.1875 1.4375 -1.8125q0.96875 -0.625 2.171875 -0.625q0.875 0 1.546875 0.375q0.6875 0.359375 1.109375 0.953125l0 -4.796875l1.640625 0l0 13.359375l-1.53125 0zm-5.171875 -4.828125q0 1.859375 0.78125 2.78125q0.78125 0.921875 1.84375 0.921875q1.078125 0 1.828125 -0.875q0.75 -0.890625 0.75 -2.6875q0 -1.984375 -0.765625 -2.90625q-0.765625 -0.9375 -1.890625 -0.9375q-1.078125 0 -1.8125 0.890625q-0.734375 0.890625 -0.734375 2.8125z" fill-rule="nonzero"/><path fill="#000000" d="m395.97363 198.43706l0 -13.359375l5.921875 0q1.78125 0 2.703125 0.359375q0.9375 0.359375 1.484375 1.28125q0.5625 0.90625 0.5625 2.015625q0 1.40625 -0.921875 2.390625q-0.921875 0.96875 -2.84375 1.234375q0.703125 0.34375 1.078125 0.671875q0.765625 0.703125 1.453125 1.765625l2.328125 3.640625l-2.21875 0l-1.765625 -2.78125q-0.78125 -1.203125 -1.28125 -1.828125q-0.5 -0.640625 -0.90625 -0.890625q-0.390625 -0.265625 -0.796875 -0.359375q-0.296875 -0.078125 -0.984375 -0.078125l-2.046875 0l0 5.9375l-1.765625 0zm1.765625 -7.453125l3.796875 0q1.21875 0 1.890625 -0.25q0.6875 -0.265625 1.046875 -0.8125q0.359375 -0.546875 0.359375 -1.1875q0 -0.953125 -0.6875 -1.5625q-0.6875 -0.609375 -2.1875 -0.609375l-4.21875 0l0 4.421875zm18.09793 4.34375l1.6875 0.203125q-0.40625 1.484375 -1.484375 2.3125q-1.078125 0.8125 -2.765625 0.8125q-2.125 0 -3.375 -1.296875q-1.234375 -1.3125 -1.234375 -3.671875q0 -2.453125 1.25 -3.796875q1.265625 -1.34375 3.265625 -1.34375q1.9375 0 3.15625 1.328125q1.234375 1.3125 1.234375 3.703125q0 0.15625 0 0.4375l-7.21875 0q0.09375 1.59375 0.90625 2.453125q0.8125 0.84375 2.015625 0.84375q0.90625 0 1.546875 -0.46875q0.640625 -0.484375 1.015625 -1.515625zm-5.390625 -2.65625l5.40625 0q-0.109375 -1.21875 -0.625 -1.828125q-0.78125 -0.953125 -2.03125 -0.953125q-1.125 0 -1.90625 0.765625q-0.765625 0.75 -0.84375 2.015625zm9.141357 9.46875l0 -13.375l1.484375 0l0 1.25q0.53125 -0.734375 1.1875 -1.09375q0.671875 -0.375 1.625 -0.375q1.234375 0 2.171875 0.640625q0.953125 0.625 1.4375 1.796875q0.484375 1.15625 0.484375 2.546875q0 1.484375 -0.53125 2.671875q-0.53125 1.1875 -1.546875 1.828125q-1.015625 0.625 -2.140625 0.625q-0.8125 0 -1.46875 -0.34375q-0.65625 -0.34375 -1.0625 -0.875l0 4.703125l-1.640625 0zm1.484375 -8.484375q0 1.859375 0.75 2.765625q0.765625 0.890625 1.828125 0.890625q1.09375 0 1.875 -0.921875q0.78125 -0.9375 0.78125 -2.875q0 -1.84375 -0.765625 -2.765625q-0.75 -0.921875 -1.8125 -0.921875q-1.046875 0 -1.859375 0.984375q-0.796875 0.96875 -0.796875 2.84375zm8.875702 4.78125l0 -9.671875l1.46875 0l0 1.46875q0.5625 -1.03125 1.03125 -1.359375q0.484375 -0.328125 1.0625 -0.328125q0.828125 0 1.6875 0.53125l-0.5625 1.515625q-0.609375 -0.359375 -1.203125 -0.359375q-0.546875 0 -0.96875 0.328125q-0.421875 0.328125 -0.609375 0.890625q-0.28125 0.875 -0.28125 1.921875l0 5.0625l-1.625 0zm12.853302 -3.109375l1.6875 0.203125q-0.40625 1.484375 -1.484375 2.3125q-1.078125 0.8125 -2.765625 0.8125q-2.125 0 -3.375 -1.296875q-1.234375 -1.3125 -1.234375 -3.671875q0 -2.453125 1.25 -3.796875q1.265625 -1.34375 3.265625 -1.34375q1.9375 0 3.15625 1.328125q1.234375 1.3125 1.234375 3.703125q0 0.15625 0 0.4375l-7.21875 0q0.09375 1.59375 0.90625 2.453125q0.8125 0.84375 2.015625 0.84375q0.90625 0 1.546875 -0.46875q0.640625 -0.484375 1.015625 -1.515625zm-5.390625 -2.65625l5.40625 0q-0.109375 -1.21875 -0.625 -1.828125q-0.78125 -0.953125 -2.03125 -0.953125q-1.125 0 -1.90625 0.765625q-0.765625 0.75 -0.84375 2.015625zm8.485107 2.875l1.625 -0.25q0.125 0.96875 0.75 1.5q0.625 0.515625 1.75 0.515625q1.125 0 1.671875 -0.453125q0.546875 -0.46875 0.546875 -1.09375q0 -0.546875 -0.484375 -0.875q-0.328125 -0.21875 -1.671875 -0.546875q-1.8125 -0.46875 -2.515625 -0.796875q-0.6875 -0.328125 -1.046875 -0.90625q-0.359375 -0.59375 -0.359375 -1.3125q0 -0.640625 0.296875 -1.1875q0.296875 -0.5625 0.8125 -0.921875q0.375 -0.28125 1.03125 -0.46875q0.671875 -0.203125 1.421875 -0.203125q1.140625 0 2.0 0.328125q0.859375 0.328125 1.265625 0.890625q0.421875 0.5625 0.578125 1.5l-1.609375 0.21875q-0.109375 -0.75 -0.640625 -1.171875q-0.515625 -0.421875 -1.46875 -0.421875q-1.140625 0 -1.625 0.375q-0.46875 0.375 -0.46875 0.875q0 0.3125 0.1875 0.578125q0.203125 0.265625 0.640625 0.4375q0.234375 0.09375 1.4375 0.421875q1.75 0.453125 2.4375 0.75q0.6875 0.296875 1.078125 0.859375q0.390625 0.5625 0.390625 1.40625q0 0.828125 -0.484375 1.546875q-0.46875 0.71875 -1.375 1.125q-0.90625 0.390625 -2.046875 0.390625q-1.875 0 -2.875 -0.78125q-0.984375 -0.78125 -1.25 -2.328125zm16.609375 -0.21875l1.6875 0.203125q-0.40625 1.484375 -1.484375 2.3125q-1.078125 0.8125 -2.765625 0.8125q-2.125 0 -3.375 -1.296875q-1.234375 -1.3125 -1.234375 -3.671875q0 -2.453125 1.25 -3.796875q1.265625 -1.34375 3.265625 -1.34375q1.9375 0 3.15625 1.328125q1.234375 1.3125 1.234375 3.703125q0 0.15625 0 0.4375l-7.21875 0q0.09375 1.59375 0.90625 2.453125q0.8125 0.84375 2.015625 0.84375q0.90625 0 1.546875 -0.46875q0.640625 -0.484375 1.015625 -1.515625zm-5.390625 -2.65625l5.40625 0q-0.109375 -1.21875 -0.625 -1.828125q-0.78125 -0.953125 -2.03125 -0.953125q-1.125 0 -1.90625 0.765625q-0.765625 0.75 -0.84375 2.015625zm9.141327 5.765625l0 -9.671875l1.46875 0l0 1.375q1.0625 -1.59375 3.078125 -1.59375q0.875 0 1.609375 0.3125q0.734375 0.3125 1.09375 0.828125q0.375 0.5 0.515625 1.203125q0.09375 0.453125 0.09375 1.59375l0 5.953125l-1.640625 0l0 -5.890625q0 -1.0 -0.203125 -1.484375q-0.1875 -0.5 -0.671875 -0.796875q-0.484375 -0.296875 -1.140625 -0.296875q-1.046875 0 -1.8125 0.671875q-0.75 0.65625 -0.75 2.515625l0 5.28125l-1.640625 0zm13.953857 -1.46875l0.234375 1.453125q-0.6875 0.140625 -1.234375 0.140625q-0.890625 0 -1.390625 -0.28125q-0.484375 -0.28125 -0.6875 -0.734375q-0.203125 -0.46875 -0.203125 -1.9375l0 -5.578125l-1.203125 0l0 -1.265625l1.203125 0l0 -2.390625l1.625 -0.984375l0 3.375l1.65625 0l0 1.265625l-1.65625 0l0 5.671875q0 0.6875 0.078125 0.890625q0.09375 0.203125 0.28125 0.328125q0.203125 0.109375 0.578125 0.109375q0.265625 0 0.71875 -0.0625zm7.9176636 0.28125q-0.921875 0.765625 -1.765625 1.09375q-0.828125 0.3125 -1.796875 0.3125q-1.59375 0 -2.453125 -0.78125q-0.859375 -0.78125 -0.859375 -1.984375q0 -0.71875 0.328125 -1.296875q0.328125 -0.59375 0.84375 -0.9375q0.53125 -0.359375 1.1875 -0.546875q0.46875 -0.125 1.453125 -0.25q1.984375 -0.234375 2.921875 -0.5625q0.015625 -0.34375 0.015625 -0.421875q0 -1.0 -0.46875 -1.421875q-0.625 -0.546875 -1.875 -0.546875q-1.15625 0 -1.703125 0.40625q-0.546875 0.40625 -0.8125 1.421875l-1.609375 -0.21875q0.21875 -1.015625 0.71875 -1.640625q0.5 -0.640625 1.453125 -0.984375q0.953125 -0.34375 2.1875 -0.34375q1.25 0 2.015625 0.296875q0.78125 0.28125 1.140625 0.734375q0.375 0.4375 0.515625 1.109375q0.078125 0.421875 0.078125 1.515625l0 2.1875q0 2.28125 0.109375 2.890625q0.109375 0.59375 0.40625 1.15625l-1.703125 0q-0.265625 -0.515625 -0.328125 -1.1875zm-0.140625 -3.671875q-0.890625 0.375 -2.671875 0.625q-1.015625 0.140625 -1.4375 0.328125q-0.421875 0.1875 -0.65625 0.53125q-0.21875 0.34375 -0.21875 0.78125q0 0.65625 0.5 1.09375q0.5 0.4375 1.453125 0.4375q0.9375 0 1.671875 -0.40625q0.75 -0.421875 1.09375 -1.140625q0.265625 -0.5625 0.265625 -1.640625l0 -0.609375zm7.7819824 3.390625l0.234375 1.453125q-0.6875 0.140625 -1.234375 0.140625q-0.890625 0 -1.390625 -0.28125q-0.484375 -0.28125 -0.6875 -0.734375q-0.203125 -0.46875 -0.203125 -1.9375l0 -5.578125l-1.203125 0l0 -1.265625l1.203125 0l0 -2.390625l1.625 -0.984375l0 3.375l1.65625 0l0 1.265625l-1.65625 0l0 5.671875q0 0.6875 0.078125 0.890625q0.09375 0.203125 0.28125 0.328125q0.203125 0.109375 0.578125 0.109375q0.265625 0 0.71875 -0.0625zm1.6051636 -10.0l0 -1.890625l1.640625 0l0 1.890625l-1.640625 0zm0 11.46875l0 -9.671875l1.640625 0l0 9.671875l-1.640625 0zm3.5354614 -4.84375q0 -2.6875 1.484375 -3.96875q1.25 -1.078125 3.046875 -1.078125q2.0 0 3.265625 1.3125q1.265625 1.296875 1.265625 3.609375q0 1.859375 -0.5625 2.9375q-0.5625 1.0625 -1.640625 1.65625q-1.0625 0.59375 -2.328125 0.59375q-2.03125 0 -3.28125 -1.296875q-1.25 -1.3125 -1.25 -3.765625zm1.6875 0q0 1.859375 0.796875 2.796875q0.8125 0.921875 2.046875 0.921875q1.21875 0 2.03125 -0.921875q0.8125 -0.9375 0.8125 -2.84375q0 -1.796875 -0.8125 -2.71875q-0.8125 -0.921875 -2.03125 -0.921875q-1.234375 0 -2.046875 0.921875q-0.796875 0.90625 -0.796875 2.765625zm9.297607 4.84375l0 -9.671875l1.46875 0l0 1.375q1.0625 -1.59375 3.078125 -1.59375q0.875 0 1.609375 0.3125q0.734375 0.3125 1.09375 0.828125q0.375 0.5 0.515625 1.203125q0.09375 0.453125 0.09375 1.59375l0 5.953125l-1.640625 0l0 -5.890625q0 -1.0 -0.203125 -1.484375q-0.1875 -0.5 -0.671875 -0.796875q-0.484375 -0.296875 -1.140625 -0.296875q-1.046875 0 -1.8125 0.671875q-0.75 0.65625 -0.75 2.515625l0 5.28125l-1.640625 0z" fill-rule="nonzero"/><path fill="#fff2cc" d="m590.584 77.92913l0 98.4882l-24.031494 0l0 -98.4882z" fill-rule="evenodd"/><path stroke="#000000" stroke-width="1.0" stroke-linejoin="round" stroke-linecap="butt" d="m590.584 77.92913l0 98.4882l-24.031494 0l0 -98.4882z" fill-rule="evenodd"/><path fill="#000000" d="m576.81384 99.70936l0.09375 1.0625q-0.65625 0.078125 -1.0625 0.359375q-0.40625 0.28125 -0.671875 0.859375q-0.25 0.59375 -0.25 1.328125q0 0.640625 0.1875 1.140625q0.203125 0.5 0.53125 0.734375q0.34375 0.25 0.734375 0.25q0.40625 0 0.703125 -0.234375q0.3125 -0.234375 0.515625 -0.765625q0.140625 -0.359375 0.421875 -1.546875q0.28125 -1.171875 0.53125 -1.640625q0.328125 -0.625 0.796875 -0.921875q0.484375 -0.296875 1.078125 -0.296875q0.640625 0 1.203125 0.359375q0.578125 0.375 0.859375 1.078125q0.296875 0.71875 0.296875 1.578125q0 0.953125 -0.3125 1.6875q-0.296875 0.734375 -0.90625 1.125q-0.59375 0.390625 -1.34375 0.421875l-0.078125 -1.09375q0.8125 -0.09375 1.21875 -0.609375q0.421875 -0.5 0.421875 -1.484375q0 -1.03125 -0.375 -1.5q-0.375 -0.46875 -0.90625 -0.46875q-0.46875 0 -0.765625 0.328125q-0.296875 0.328125 -0.609375 1.703125q-0.3125 1.390625 -0.546875 1.90625q-0.359375 0.75 -0.890625 1.109375q-0.515625 0.359375 -1.21875 0.359375q-0.6875 0 -1.296875 -0.390625q-0.59375 -0.390625 -0.9375 -1.125q-0.328125 -0.734375 -0.328125 -1.65625q0 -1.171875 0.328125 -1.96875q0.34375 -0.78125 1.03125 -1.234375q0.6875 -0.4375 1.546875 -0.453125zm-0.765625 12.503906l-0.125 1.09375q-0.953125 -0.25 -1.484375 -0.953125q-0.53125 -0.703125 -0.53125 -1.78125q0 -1.359375 0.84375 -2.171875q0.84375 -0.796875 2.359375 -0.796875q1.5625 0 2.421875 0.8125q0.875 0.8125 0.875 2.09375q0 1.25 -0.84375 2.03125q-0.84375 0.796875 -2.390625 0.796875q-0.09375 0 -0.28125 0l0 -4.640625q-1.03125 0.0625 -1.578125 0.578125q-0.53125 0.515625 -0.53125 1.296875q0 0.578125 0.296875 0.984375q0.3125 0.421875 0.96875 0.65625zm1.703125 -3.453125l0 3.46875q0.796875 -0.0625 1.1875 -0.390625q0.609375 -0.515625 0.609375 -1.3125q0 -0.734375 -0.484375 -1.234375q-0.484375 -0.484375 -1.3125 -0.53125zm-3.703125 5.876953l6.21875 0l0 0.9375l-0.875 0q0.46875 0.296875 0.734375 0.78125q0.28125 0.484375 0.28125 1.109375q0 0.6875 -0.28125 1.125q-0.28125 0.453125 -0.796875 0.625q1.078125 0.75 1.078125 1.921875q0 0.9375 -0.515625 1.421875q-0.5 0.5 -1.578125 0.5l-4.265625 0l0 -1.046875l3.921875 0q0.625 0 0.90625 -0.109375q0.28125 -0.09375 0.453125 -0.359375q0.171875 -0.265625 0.171875 -0.640625q0 -0.65625 -0.4375 -1.09375q-0.4375 -0.421875 -1.40625 -0.421875l-3.609375 0l0 -1.0625l4.046875 0q0.703125 0 1.046875 -0.265625q0.359375 -0.25 0.359375 -0.828125q0 -0.453125 -0.234375 -0.828125q-0.234375 -0.375 -0.6875 -0.546875q-0.453125 -0.171875 -1.296875 -0.171875l-3.234375 0l0 -1.046875zm0.765625 14.058601q-0.5 -0.59375 -0.703125 -1.1406326q-0.203125 -0.53125 -0.203125 -1.15625q0 -1.03125 0.5 -1.578125q0.5 -0.546875 1.28125 -0.546875q0.453125 0 0.828125 0.203125q0.390625 0.203125 0.609375 0.546875q0.234375 0.34375 0.34375 0.765625q0.09375 0.296875 0.171875 0.9375q0.140625 1.265625 0.359375 1.8750076q0.21875 0 0.265625 0q0.65625 0 0.921875 -0.296875q0.34375 -0.40625763 0.34375 -1.2031326q0 -0.734375 -0.265625 -1.09375q-0.25 -0.359375 -0.90625 -0.53125l0.140625 -1.03125q0.65625 0.140625 1.0625 0.46875q0.40625 0.328125 0.625 0.9375q0.21875 0.609375 0.21875 1.40625q0 0.7968826 -0.1875 1.2968826q-0.1875 0.5 -0.46875 0.734375q-0.28125 0.234375 -0.71875 0.328125q-0.265625 0.046875 -0.96875 0.046875l-1.40625 0q-1.46875 0 -1.859375 0.0625q-0.390625 0.078125 -0.75 0.28125l0 -1.109375q0.328125 -0.15625 0.765625 -0.203125zm2.359375 -0.09375q-0.234375 -0.578125 -0.40625 -1.7187576q-0.09375 -0.65625 -0.21875 -0.921875q-0.109375 -0.265625 -0.328125 -0.421875q-0.21875 -0.140625 -0.5 -0.140625q-0.421875 0 -0.703125 0.3125q-0.28125 0.328125 -0.28125 0.9375q0 0.609375 0.265625 1.078125q0.265625 0.48438263 0.734375 0.7031326q0.359375 0.171875 1.046875 0.171875l0.390625 0zm-3.125 2.7050781l6.21875 0l0 0.9375l-0.875 0q1.015625 0.6875 1.015625 1.984375q0 0.5625 -0.203125 1.03125q-0.203125 0.484375 -0.53125 0.71875q-0.328125 0.234375 -0.765625 0.328125q-0.296875 0.046875 -1.03125 0.046875l-3.828125 0l0 -1.046875l3.78125 0q0.65625 0 0.96875 -0.125q0.3125 -0.125 0.5 -0.4375q0.203125 -0.3125 0.203125 -0.734375q0 -0.671875 -0.4375 -1.171875q-0.421875 -0.484375 -1.609375 -0.484375l-3.40625 0l0 -1.046875zm0.9375 8.970703l-0.921875 0.15625q-0.09375 -0.453125 -0.09375 -0.796875q0 -0.578125 0.171875 -0.890625q0.1875 -0.3125 0.484375 -0.453125q0.296875 -0.125 1.25 -0.125l3.578125 0l0 -0.765625l0.8125 0l0 0.765625l1.546875 0l0.625 1.046875l-2.171875 0l0 1.0625l-0.8125 0l0 -1.0625l-3.640625 0q-0.453125 0 -0.578125 0.046875q-0.125 0.0625 -0.203125 0.1875q-0.078125 0.125 -0.078125 0.359375q0 0.1875 0.03125 0.46875zm6.4375 1.0371094l1.21875 0l0 1.0625l-1.21875 0l0 -1.0625zm-7.375 0l6.21875 0l0 1.0625l-6.21875 0l0 -1.0625zm2.28125 6.7285156l-0.140625 1.03125q-1.0625 -0.171875 -1.671875 -0.875q-0.609375 -0.703125 -0.609375 -1.71875q0 -1.28125 0.828125 -2.0625q0.84375 -0.765625 2.40625 -0.765625q1.0 0 1.75 0.328125q0.765625 0.34375 1.140625 1.015625q0.375 0.6875 0.375 1.5q0 1.0 -0.515625 1.640625q-0.5 0.65625 -1.453125 0.84375l-0.15625 -1.03125q0.625 -0.140625 0.9375 -0.515625q0.328125 -0.375 0.328125 -0.90625q0 -0.796875 -0.578125 -1.296875q-0.5625 -0.5 -1.796875 -0.5q-1.265625 0 -1.828125 0.484375q-0.5625 0.484375 -0.5625 1.25q0 0.625 0.375 1.03125q0.375 0.421875 1.171875 0.546875zm-0.421875 1.515625l0.15625 1.03125q-0.625 0.09375 -0.953125 0.484375q-0.328125 0.40625 -0.328125 1.140625q0 0.71875 0.28125 1.0625q0.296875 0.359375 0.703125 0.359375q0.359375 0 0.5625 -0.3125q0.140625 -0.21875 0.359375 -1.078125q0.296875 -1.15625 0.5 -1.609375q0.21875 -0.4375 0.59375 -0.671875q0.375 -0.234375 0.84375 -0.234375q0.40625 0 0.765625 0.1875q0.359375 0.1875 0.59375 0.515625q0.171875 0.25 0.296875 0.671875q0.125 0.421875 0.125 0.921875q0 0.71875 -0.21875 1.265625q-0.203125 0.5625 -0.5625 0.828125q-0.359375 0.265625 -0.953125 0.359375l-0.140625 -1.03125q0.46875 -0.0625 0.734375 -0.40625q0.28125 -0.328125 0.28125 -0.953125q0 -0.71875 -0.25 -1.03125q-0.234375 -0.3125 -0.5625 -0.3125q-0.203125 0 -0.359375 0.125q-0.171875 0.140625 -0.28125 0.40625q-0.0625 0.15625 -0.265625 0.9375q-0.3125 1.125 -0.5 1.5625q-0.1875 0.4375 -0.546875 0.6875q-0.359375 0.25 -0.90625 0.25q-0.53125 0 -1.0 -0.3125q-0.453125 -0.296875 -0.71875 -0.875q-0.25 -0.578125 -0.25 -1.3125q0 -1.21875 0.5 -1.859375q0.515625 -0.625 1.5 -0.796875z" fill-rule="nonzero"/><path fill="#cfe2f3" d="m81.30446 174.2021l63.496063 0l0 -7.0078735l14.015747 14.015747l-14.015747 14.015747l0 -7.0078735l-63.496063 0z" fill-rule="evenodd"/><path stroke="#000000" stroke-width="1.0" stroke-linejoin="round" stroke-linecap="butt" d="m81.30446 174.2021l63.496063 0l0 -7.0078735l14.015747 14.015747l-14.015747 14.015747l0 -7.0078735l-63.496063 0z" fill-rule="evenodd"/><path fill="#cfe2f3" d="m319.08023 174.19948l42.04724 0l0 -7.0078735l14.015747 14.015747l-14.015747 14.015747l0 -7.0078735l-42.04724 0z" fill-rule="evenodd"/><path stroke="#000000" stroke-width="1.0" stroke-linejoin="round" stroke-linecap="butt" d="m319.08023 174.19948l42.04724 0l0 -7.0078735l14.015747 14.015747l-14.015747 14.015747l0 -7.0078735l-42.04724 0z" fill-rule="evenodd"/><path fill="#f4cccc" d="m655.3163 160.6588l87.02362 0l0 41.102356l-87.02362 0z" fill-rule="evenodd"/><path stroke="#000000" stroke-width="1.0" stroke-linejoin="round" stroke-linecap="butt" d="m655.3163 160.6588l87.02362 0l0 41.102356l-87.02362 0z" fill-rule="evenodd"/><path fill="#000000" d="m668.1136 188.12997l0 -13.359375l5.046875 0q1.328125 0 2.03125 0.125q0.96875 0.171875 1.640625 0.640625q0.671875 0.453125 1.078125 1.28125q0.40625 0.828125 0.40625 1.828125q0 1.703125 -1.09375 2.890625q-1.078125 1.171875 -3.921875 1.171875l-3.421875 0l0 5.421875l-1.765625 0zm1.765625 -7.0l3.453125 0q1.71875 0 2.4375 -0.640625q0.71875 -0.640625 0.71875 -1.796875q0 -0.84375 -0.421875 -1.4375q-0.421875 -0.59375 -1.125 -0.78125q-0.4375 -0.125 -1.640625 -0.125l-3.421875 0l0 4.78125zm10.4279785 7.0l0 -13.359375l1.640625 0l0 13.359375l-1.640625 0zm10.504211 -1.1875q-0.921875 0.765625 -1.765625 1.09375q-0.828125 0.3125 -1.796875 0.3125q-1.59375 0 -2.453125 -0.78125q-0.859375 -0.78125 -0.859375 -1.984375q0 -0.71875 0.328125 -1.296875q0.328125 -0.59375 0.84375 -0.9375q0.53125 -0.359375 1.1875 -0.546875q0.46875 -0.125 1.453125 -0.25q1.984375 -0.234375 2.921875 -0.5625q0.015625 -0.34375 0.015625 -0.421875q0 -1.0 -0.46875 -1.421875q-0.625 -0.546875 -1.875 -0.546875q-1.15625 0 -1.703125 0.40625q-0.546875 0.40625 -0.8125 1.421875l-1.609375 -0.21875q0.21875 -1.015625 0.71875 -1.640625q0.5 -0.640625 1.453125 -0.984375q0.953125 -0.34375 2.1875 -0.34375q1.25 0 2.015625 0.296875q0.78125 0.28125 1.140625 0.734375q0.375 0.4375 0.515625 1.109375q0.078125 0.421875 0.078125 1.515625l0 2.1875q0 2.28125 0.109375 2.890625q0.109375 0.59375 0.40625 1.15625l-1.703125 0q-0.265625 -0.515625 -0.328125 -1.1875zm-0.140625 -3.671875q-0.890625 0.375 -2.671875 0.625q-1.015625 0.140625 -1.4375 0.328125q-0.421875 0.1875 -0.65625 0.53125q-0.21875 0.34375 -0.21875 0.78125q0 0.65625 0.5 1.09375q0.5 0.4375 1.453125 0.4375q0.9375 0 1.671875 -0.40625q0.75 -0.421875 1.09375 -1.140625q0.265625 -0.5625 0.265625 -1.640625l0 -0.609375zm4.2037964 4.859375l0 -9.671875l1.46875 0l0 1.375q1.0625 -1.59375 3.078125 -1.59375q0.875 0 1.609375 0.3125q0.734375 0.3125 1.09375 0.828125q0.375 0.5 0.515625 1.203125q0.09375 0.453125 0.09375 1.59375l0 5.953125l-1.640625 0l0 -5.890625q0 -1.0 -0.203125 -1.484375q-0.1875 -0.5 -0.671875 -0.796875q-0.484375 -0.296875 -1.140625 -0.296875q-1.046875 0 -1.8125 0.671875q-0.75 0.65625 -0.75 2.515625l0 5.28125l-1.640625 0zm10.375732 0l0 -9.671875l1.46875 0l0 1.375q1.0625 -1.59375 3.078125 -1.59375q0.875 0 1.609375 0.3125q0.734375 0.3125 1.09375 0.828125q0.375 0.5 0.515625 1.203125q0.09375 0.453125 0.09375 1.59375l0 5.953125l-1.640625 0l0 -5.890625q0 -1.0 -0.203125 -1.484375q-0.1875 -0.5 -0.671875 -0.796875q-0.484375 -0.296875 -1.140625 -0.296875q-1.046875 0 -1.8125 0.671875q-0.75 0.65625 -0.75 2.515625l0 5.28125l-1.640625 0zm17.000732 -3.109375l1.6875 0.203125q-0.40625 1.484375 -1.484375 2.3125q-1.078125 0.8125 -2.765625 0.8125q-2.125 0 -3.375 -1.296875q-1.234375 -1.3125 -1.234375 -3.671875q0 -2.453125 1.25 -3.796875q1.265625 -1.34375 3.265625 -1.34375q1.9375 0 3.15625 1.328125q1.234375 1.3125 1.234375 3.703125q0 0.15625 0 0.4375l-7.21875 0q0.09375 1.59375 0.90625 2.453125q0.8125 0.84375 2.015625 0.84375q0.90625 0 1.546875 -0.46875q0.640625 -0.484375 1.015625 -1.515625zm-5.390625 -2.65625l5.40625 0q-0.109375 -1.21875 -0.625 -1.828125q-0.78125 -0.953125 -2.03125 -0.953125q-1.125 0 -1.90625 0.765625q-0.765625 0.75 -0.84375 2.015625zm9.125732 5.765625l0 -9.671875l1.46875 0l0 1.46875q0.5625 -1.03125 1.03125 -1.359375q0.484375 -0.328125 1.0625 -0.328125q0.828125 0 1.6875 0.53125l-0.5625 1.515625q-0.609375 -0.359375 -1.203125 -0.359375q-0.546875 0 -0.96875 0.328125q-0.421875 0.328125 -0.609375 0.890625q-0.28125 0.875 -0.28125 1.921875l0 5.0625l-1.625 0z" fill-rule="nonzero"/><path fill="#d9ead3" d="m646.6076 9.238845l104.44098 0l0 73.92126l-104.44098 0z" fill-rule="evenodd"/><path stroke="#000000" stroke-width="1.0" stroke-linejoin="round" stroke-linecap="butt" d="m646.6076 9.238845l104.44098 0l0 73.92126l-104.44098 0z" fill-rule="evenodd"/><path fill="#000000" d="m659.8636 20.0101l0 1.90625l-1.765625 0l0 -1.515625q0 -1.21875 0.296875 -1.765625q0.390625 -0.71875 1.21875 -1.09375l0.390625 0.640625q-0.5 0.203125 -0.734375 0.625q-0.234375 0.40625 -0.265625 1.203125l0.859375 0zm2.828125 0l0 1.90625l-1.765625 0l0 -1.515625q0 -1.21875 0.296875 -1.765625q0.375 -0.71875 1.203125 -1.09375l0.40625 0.640625q-0.5 0.203125 -0.734375 0.625q-0.234375 0.40625 -0.265625 1.203125l0.859375 0zm8.5564575 5.875l0 -1.578125l5.65625 0l0 4.953125q-1.296875 1.046875 -2.6875 1.578125q-1.375 0.515625 -2.84375 0.515625q-1.96875 0 -3.578125 -0.84375q-1.609375 -0.84375 -2.421875 -2.4375q-0.8125 -1.59375 -0.8125 -3.5625q0 -1.953125 0.8125 -3.640625q0.8125 -1.6875 2.34375 -2.5q1.53125 -0.828125 3.515625 -0.828125q1.453125 0 2.625 0.46875q1.171875 0.46875 1.828125 1.3125q0.671875 0.828125 1.015625 2.171875l-1.59375 0.4375q-0.296875 -1.015625 -0.75 -1.59375q-0.4375 -0.59375 -1.265625 -0.9375q-0.828125 -0.34375 -1.84375 -0.34375q-1.203125 0 -2.09375 0.375q-0.890625 0.359375 -1.4375 0.96875q-0.53125 0.59375 -0.828125 1.3125q-0.515625 1.234375 -0.515625 2.6875q0 1.78125 0.609375 2.984375q0.625 1.203125 1.796875 1.796875q1.171875 0.578125 2.5 0.578125q1.140625 0 2.234375 -0.4375q1.09375 -0.453125 1.65625 -0.953125l0 -2.484375l-3.921875 0zm7.4489136 0.390625q0 -2.6875 1.484375 -3.96875q1.25 -1.078125 3.046875 -1.078125q2.0 0 3.265625 1.3125q1.265625 1.296875 1.265625 3.609375q0 1.859375 -0.5625 2.9375q-0.5625 1.0625 -1.640625 1.65625q-1.0625 0.59375 -2.328125 0.59375q-2.03125 0 -3.28125 -1.296875q-1.25 -1.3125 -1.25 -3.765625zm1.6875 0q0 1.859375 0.796875 2.796875q0.8125 0.921875 2.046875 0.921875q1.21875 0 2.03125 -0.921875q0.8125 -0.9375 0.8125 -2.84375q0 -1.796875 -0.8125 -2.71875q-0.8125 -0.921875 -2.03125 -0.921875q-1.234375 0 -2.046875 0.921875q-0.796875 0.90625 -0.796875 2.765625zm18.059021 3.375l0.234375 1.453125q-0.6875 0.140625 -1.234375 0.140625q-0.890625 0 -1.390625 -0.28125q-0.484375 -0.28125 -0.6875 -0.734375q-0.203125 -0.46875 -0.203125 -1.9375l0 -5.578125l-1.203125 0l0 -1.265625l1.203125 0l0 -2.390625l1.625 -0.984375l0 3.375l1.65625 0l0 1.265625l-1.65625 0l0 5.671875q0 0.6875 0.078125 0.890625q0.09375 0.203125 0.28125 0.328125q0.203125 0.109375 0.578125 0.109375q0.265625 0 0.71875 -0.0625zm0.9957886 -3.375q0 -2.6875 1.484375 -3.96875q1.25 -1.078125 3.046875 -1.078125q2.0 0 3.265625 1.3125q1.265625 1.296875 1.265625 3.609375q0 1.859375 -0.5625 2.9375q-0.5625 1.0625 -1.640625 1.65625q-1.0625 0.59375 -2.328125 0.59375q-2.03125 0 -3.28125 -1.296875q-1.25 -1.3125 -1.25 -3.765625zm1.6875 0q0 1.859375 0.796875 2.796875q0.8125 0.921875 2.046875 0.921875q1.21875 0 2.03125 -0.921875q0.8125 -0.9375 0.8125 -2.84375q0 -1.796875 -0.8125 -2.71875q-0.8125 -0.921875 -2.03125 -0.921875q-1.234375 0 -2.046875 0.921875q-0.796875 0.90625 -0.796875 2.765625zm18.059021 3.375l0.234375 1.453125q-0.6875 0.140625 -1.234375 0.140625q-0.890625 0 -1.390625 -0.28125q-0.484375 -0.28125 -0.6875 -0.734375q-0.203125 -0.46875 -0.203125 -1.9375l0 -5.578125l-1.203125 0l0 -1.265625l1.203125 0l0 -2.390625l1.625 -0.984375l0 3.375l1.65625 0l0 1.265625l-1.65625 0l0 5.671875q0 0.6875 0.078125 0.890625q0.09375 0.203125 0.28125 0.328125q0.203125 0.109375 0.578125 0.109375q0.265625 0 0.71875 -0.0625zm1.6052246 1.46875l0 -13.359375l1.640625 0l0 4.796875q1.140625 -1.328125 2.890625 -1.328125q1.078125 0 1.859375 0.421875q0.796875 0.421875 1.140625 1.171875q0.34375 0.75 0.34375 2.171875l0 6.125l-1.640625 0l0 -6.125q0 -1.234375 -0.53125 -1.796875q-0.53125 -0.5625 -1.515625 -0.5625q-0.71875 0 -1.359375 0.390625q-0.640625 0.375 -0.921875 1.015625q-0.265625 0.640625 -0.265625 1.78125l0 5.296875l-1.640625 0zm17.000671 -3.109375l1.6875 0.203125q-0.40625 1.484375 -1.484375 2.3125q-1.078125 0.8125 -2.765625 0.8125q-2.125 0 -3.375 -1.296875q-1.234375 -1.3125 -1.234375 -3.671875q0 -2.453125 1.25 -3.796875q1.265625 -1.34375 3.265625 -1.34375q1.9375 0 3.15625 1.328125q1.234375 1.3125 1.234375 3.703125q0 0.15625 0 0.4375l-7.21875 0q0.09375 1.59375 0.90625 2.453125q0.8125 0.84375 2.015625 0.84375q0.90625 0 1.546875 -0.46875q0.640625 -0.484375 1.015625 -1.515625zm-5.390625 -2.65625l5.40625 0q-0.109375 -1.21875 -0.625 -1.828125q-0.78125 -0.953125 -2.03125 -0.953125q-1.125 0 -1.90625 0.765625q-0.765625 0.75 -0.84375 2.015625z" fill-rule="nonzero"/><path fill="#000000" d="m681.1326 49.5726l1.609375 0.21875q-0.265625 1.65625 -1.359375 2.609375q-1.078125 0.9375 -2.671875 0.9375q-1.984375 0 -3.1875 -1.296875q-1.203125 -1.296875 -1.203125 -3.71875q0 -1.578125 0.515625 -2.75q0.515625 -1.171875 1.578125 -1.75q1.0625 -0.59375 2.3125 -0.59375q1.578125 0 2.578125 0.796875q1.0 0.796875 1.28125 2.265625l-1.59375 0.234375q-0.234375 -0.96875 -0.8125 -1.453125q-0.578125 -0.5 -1.390625 -0.5q-1.234375 0 -2.015625 0.890625q-0.78125 0.890625 -0.78125 2.8125q0 1.953125 0.75 2.84375q0.75 0.875 1.953125 0.875q0.96875 0 1.609375 -0.59375q0.65625 -0.59375 0.828125 -1.828125zm2.40625 -1.296875q0 -2.6875 1.484375 -3.96875q1.25 -1.078125 3.046875 -1.078125q2.0 0 3.265625 1.3125q1.265625 1.296875 1.265625 3.609375q0 1.859375 -0.5625 2.9375q-0.5625 1.0625 -1.640625 1.65625q-1.0625 0.59375 -2.328125 0.59375q-2.03125 0 -3.28125 -1.296875q-1.25 -1.3125 -1.25 -3.765625zm1.6875 0q0 1.859375 0.796875 2.796875q0.8125 0.921875 2.046875 0.921875q1.21875 0 2.03125 -0.921875q0.8125 -0.9375 0.8125 -2.84375q0 -1.796875 -0.8125 -2.71875q-0.8125 -0.921875 -2.03125 -0.921875q-1.234375 0 -2.046875 0.921875q-0.796875 0.90625 -0.796875 2.765625zm9.688232 4.84375l0 -8.40625l-1.453125 0l0 -1.265625l1.453125 0l0 -1.03125q0 -0.96875 0.171875 -1.453125q0.234375 -0.640625 0.828125 -1.03125q0.59375 -0.390625 1.671875 -0.390625q0.6875 0 1.53125 0.15625l-0.25 1.4375q-0.5 -0.09375 -0.953125 -0.09375q-0.75 0 -1.0625 0.328125q-0.3125 0.3125 -0.3125 1.1875l0 0.890625l1.890625 0l0 1.265625l-1.890625 0l0 8.40625l-1.625 0zm4.8460693 0l0 -8.40625l-1.453125 0l0 -1.265625l1.453125 0l0 -1.03125q0 -0.96875 0.171875 -1.453125q0.234375 -0.640625 0.828125 -1.03125q0.59375 -0.390625 1.671875 -0.390625q0.6875 0 1.53125 0.15625l-0.25 1.4375q-0.5 -0.09375 -0.953125 -0.09375q-0.75 0 -1.0625 0.328125q-0.3125 0.3125 -0.3125 1.1875l0 0.890625l1.890625 0l0 1.265625l-1.890625 0l0 8.40625l-1.625 0zm11.417664 -3.109375l1.6875 0.203125q-0.40625 1.484375 -1.484375 2.3125q-1.078125 0.8125 -2.765625 0.8125q-2.125 0 -3.375 -1.296875q-1.234375 -1.3125 -1.234375 -3.671875q0 -2.453125 1.25 -3.796875q1.265625 -1.34375 3.265625 -1.34375q1.9375 0 3.15625 1.328125q1.234375 1.3125 1.234375 3.703125q0 0.15625 0 0.4375l-7.21875 0q0.09375 1.59375 0.90625 2.453125q0.8125 0.84375 2.015625 0.84375q0.90625 0 1.546875 -0.46875q0.640625 -0.484375 1.015625 -1.515625zm-5.390625 -2.65625l5.40625 0q-0.109375 -1.21875 -0.625 -1.828125q-0.78125 -0.953125 -2.03125 -0.953125q-1.125 0 -1.90625 0.765625q-0.765625 0.75 -0.84375 2.015625zm15.766357 2.65625l1.6875 0.203125q-0.40625 1.484375 -1.484375 2.3125q-1.078125 0.8125 -2.765625 0.8125q-2.125 0 -3.375 -1.296875q-1.234375 -1.3125 -1.234375 -3.671875q0 -2.453125 1.25 -3.796875q1.265625 -1.34375 3.265625 -1.34375q1.9375 0 3.15625 1.328125q1.234375 1.3125 1.234375 3.703125q0 0.15625 0 0.4375l-7.21875 0q0.09375 1.59375 0.90625 2.453125q0.8125 0.84375 2.015625 0.84375q0.90625 0 1.546875 -0.46875q0.640625 -0.484375 1.015625 -1.515625zm-5.390625 -2.65625l5.40625 0q-0.109375 -1.21875 -0.625 -1.828125q-0.78125 -0.953125 -2.03125 -0.953125q-1.125 0 -1.90625 0.765625q-0.765625 0.75 -0.84375 2.015625z" fill-rule="nonzero"/><path fill="#000000" d="m661.6978 75.11948l0 -9.671875l1.46875 0l0 1.359375q0.453125 -0.71875 1.203125 -1.140625q0.765625 -0.4375 1.71875 -0.4375q1.078125 0 1.765625 0.453125q0.6875 0.4375 0.96875 1.234375q1.15625 -1.6875 2.984375 -1.6875q1.453125 0 2.21875 0.796875q0.78125 0.796875 0.78125 2.453125l0 6.640625l-1.640625 0l0 -6.09375q0 -0.984375 -0.15625 -1.40625q-0.15625 -0.4375 -0.578125 -0.703125q-0.421875 -0.265625 -0.984375 -0.265625q-1.015625 0 -1.6875 0.6875q-0.671875 0.671875 -0.671875 2.15625l0 5.625l-1.640625 0l0 -6.28125q0 -1.09375 -0.40625 -1.640625q-0.40625 -0.546875 -1.3125 -0.546875q-0.6875 0 -1.28125 0.359375q-0.59375 0.359375 -0.859375 1.0625q-0.25 0.703125 -0.25 2.03125l0 5.015625l-1.640625 0zm21.853271 -1.1875q-0.921875 0.765625 -1.765625 1.09375q-0.828125 0.3125 -1.796875 0.3125q-1.59375 0 -2.453125 -0.78125q-0.859375 -0.78125 -0.859375 -1.984375q0 -0.71875 0.328125 -1.296875q0.328125 -0.59375 0.84375 -0.9375q0.53125 -0.359375 1.1875 -0.546875q0.46875 -0.125 1.453125 -0.25q1.984375 -0.234375 2.921875 -0.5625q0.015625 -0.34375 0.015625 -0.421875q0 -1.0 -0.46875 -1.421875q-0.625 -0.546875 -1.875 -0.546875q-1.15625 0 -1.703125 0.40625q-0.546875 0.40625 -0.8125 1.421875l-1.609375 -0.21875q0.21875 -1.015625 0.71875 -1.640625q0.5 -0.640625 1.453125 -0.984375q0.953125 -0.34375 2.1875 -0.34375q1.25 0 2.015625 0.296875q0.78125 0.28125 1.140625 0.734375q0.375 0.4375 0.515625 1.109375q0.078125 0.421875 0.078125 1.515625l0 2.1875q0 2.28125 0.109375 2.890625q0.109375 0.59375 0.40625 1.15625l-1.703125 0q-0.265625 -0.515625 -0.328125 -1.1875zm-0.140625 -3.671875q-0.890625 0.375 -2.671875 0.625q-1.015625 0.140625 -1.4375 0.328125q-0.421875 0.1875 -0.65625 0.53125q-0.21875 0.34375 -0.21875 0.78125q0 0.65625 0.5 1.09375q0.5 0.4375 1.453125 0.4375q0.9375 0 1.671875 -0.40625q0.75 -0.421875 1.09375 -1.140625q0.265625 -0.5625 0.265625 -1.640625l0 -0.609375zm10.516357 1.3125l1.609375 0.21875q-0.265625 1.65625 -1.359375 2.609375q-1.078125 0.9375 -2.671875 0.9375q-1.984375 0 -3.1875 -1.296875q-1.203125 -1.296875 -1.203125 -3.71875q0 -1.578125 0.515625 -2.75q0.515625 -1.171875 1.578125 -1.75q1.0625 -0.59375 2.3125 -0.59375q1.578125 0 2.578125 0.796875q1.0 0.796875 1.28125 2.265625l-1.59375 0.234375q-0.234375 -0.96875 -0.8125 -1.453125q-0.578125 -0.5 -1.390625 -0.5q-1.234375 0 -2.015625 0.890625q-0.78125 0.890625 -0.78125 2.8125q0 1.953125 0.75 2.84375q0.75 0.875 1.953125 0.875q0.96875 0 1.609375 -0.59375q0.65625 -0.59375 0.828125 -1.828125zm3.015625 3.546875l0 -13.359375l1.640625 0l0 4.796875q1.140625 -1.328125 2.890625 -1.328125q1.078125 0 1.859375 0.421875q0.796875 0.421875 1.140625 1.171875q0.34375 0.75 0.34375 2.171875l0 6.125l-1.640625 0l0 -6.125q0 -1.234375 -0.53125 -1.796875q-0.53125 -0.5625 -1.515625 -0.5625q-0.71875 0 -1.359375 0.390625q-0.640625 0.375 -0.921875 1.015625q-0.265625 0.640625 -0.265625 1.78125l0 5.296875l-1.640625 0zm10.375732 -11.46875l0 -1.890625l1.640625 0l0 1.890625l-1.640625 0zm0 11.46875l0 -9.671875l1.640625 0l0 9.671875l-1.640625 0zm4.1448364 0l0 -9.671875l1.46875 0l0 1.375q1.0625 -1.59375 3.078125 -1.59375q0.875 0 1.609375 0.3125q0.734375 0.3125 1.09375 0.828125q0.375 0.5 0.515625 1.203125q0.09375 0.453125 0.09375 1.59375l0 5.953125l-1.640625 0l0 -5.890625q0 -1.0 -0.203125 -1.484375q-0.1875 -0.5 -0.671875 -0.796875q-0.484375 -0.296875 -1.140625 -0.296875q-1.046875 0 -1.8125 0.671875q-0.75 0.65625 -0.75 2.515625l0 5.28125l-1.640625 0zm17.000671 -3.109375l1.6875 0.203125q-0.40625 1.484375 -1.484375 2.3125q-1.078125 0.8125 -2.765625 0.8125q-2.125 0 -3.375 -1.296875q-1.234375 -1.3125 -1.234375 -3.671875q0 -2.453125 1.25 -3.796875q1.265625 -1.34375 3.265625 -1.34375q1.9375 0 3.15625 1.328125q1.234375 1.3125 1.234375 3.703125q0 0.15625 0 0.4375l-7.21875 0q0.09375 1.59375 0.90625 2.453125q0.8125 0.84375 2.015625 0.84375q0.90625 0 1.546875 -0.46875q0.640625 -0.484375 1.015625 -1.515625zm-5.390625 -2.65625l5.40625 0q-0.109375 -1.21875 -0.625 -1.828125q-0.78125 -0.953125 -2.03125 -0.953125q-1.125 0 -1.90625 0.765625q-0.765625 0.75 -0.84375 2.015625zm8.703857 -5.828125l0 -1.890625l1.75 0l0 1.5q0 1.21875 -0.28125 1.75q-0.390625 0.75 -1.21875 1.109375l-0.40625 -0.640625q0.5 -0.203125 0.734375 -0.625q0.25 -0.4375 0.28125 -1.203125l-0.859375 0zm2.8125 0l0 -1.890625l1.765625 0l0 1.5q0 1.21875 -0.28125 1.75q-0.390625 0.75 -1.21875 1.109375l-0.40625 -0.640625q0.5 -0.203125 0.734375 -0.625q0.25 -0.4375 0.265625 -1.203125l-0.859375 0z" fill-rule="nonzero"/><path fill="#cfe2f3" d="m705.83594 93.41732l0 50.456688l7.0078735 0l-14.015747 14.015762l-14.015747 -14.015762l7.0078735 0l0 -50.456688z" fill-rule="evenodd"/><path stroke="#000000" stroke-width="1.0" stroke-linejoin="round" stroke-linecap="butt" d="m705.83594 93.41732l0 50.456688l7.0078735 0l-14.015747 14.015762l-14.015747 -14.015762l7.0078735 0l0 -50.456688z" fill-rule="evenodd"/><path fill="#fce5cd" d="m705.7047 212.55118l0 74.65747l0 0c0 32.06949 -25.997437 58.066956 -58.066895 58.066956l-560.8638 0c-15.400307 0 -30.169857 -6.1177673 -41.05952 -17.007416c-10.88966 -10.889679 -17.00741 -25.65921 -17.00741 -41.05954l0 -58.080185l-6.4039516 0l13.549835 -16.577286l13.549835 16.577286l-6.4039536 0l0 58.080185l0 0c0 24.176361 19.598808 43.775177 43.775166 43.775177l560.8638 0l0 0c24.17633 0 43.775146 -19.598816 43.775146 -43.775177l0 -74.65747z" fill-rule="evenodd"/><path stroke="#000000" stroke-width="1.0" stroke-linejoin="round" stroke-linecap="butt" d="m705.7047 212.55118l0 74.65747l0 0c0 32.06949 -25.997437 58.066956 -58.066895 58.066956l-560.8638 0c-15.400307 0 -30.169857 -6.1177673 -41.05952 -17.007416c-10.88966 -10.889679 -17.00741 -25.65921 -17.00741 -41.05954l0 -58.080185l-6.4039516 0l13.549835 -16.577286l13.549835 16.577286l-6.4039536 0l0 58.080185l0 0c0 24.176361 19.598808 43.775177 43.775166 43.775177l560.8638 0l0 0c24.17633 0 43.775146 -19.598816 43.775146 -43.775177l0 -74.65747z" fill-rule="evenodd"/><path fill="#000000" fill-opacity="0.0" d="m316.17715 296.18896l104.44095 0l0 42.015747l-104.44095 0z" fill-rule="evenodd"/><path fill="#000000" d="m335.64352 317.8746l0 -1.578125l5.65625 0l0 4.953125q-1.296875 1.046875 -2.6875 1.578125q-1.375 0.515625 -2.84375 0.515625q-1.96875 0 -3.578125 -0.84375q-1.609375 -0.84375 -2.421875 -2.4375q-0.8125 -1.59375 -0.8125 -3.5625q0 -1.953125 0.8125 -3.640625q0.8125 -1.6875 2.34375 -2.5q1.53125 -0.828125 3.515625 -0.828125q1.453125 0 2.625 0.46875q1.171875 0.46875 1.828125 1.3125q0.671875 0.828125 1.015625 2.171875l-1.59375 0.4375q-0.296875 -1.015625 -0.75 -1.59375q-0.4375 -0.59375 -1.265625 -0.9375q-0.828125 -0.34375 -1.84375 -0.34375q-1.203125 0 -2.09375 0.375q-0.890625 0.359375 -1.4375 0.96875q-0.53125 0.59375 -0.828125 1.3125q-0.515625 1.234375 -0.515625 2.6875q0 1.78125 0.609375 2.984375q0.625 1.203125 1.796875 1.796875q1.171875 0.578125 2.5 0.578125q1.140625 0 2.234375 -0.4375q1.09375 -0.453125 1.65625 -0.953125l0 -2.484375l-3.921875 0zm8.042694 5.234375l0 -9.671875l1.46875 0l0 1.46875q0.5625 -1.03125 1.03125 -1.359375q0.484375 -0.328125 1.0625 -0.328125q0.828125 0 1.6875 0.53125l-0.5625 1.515625q-0.609375 -0.359375 -1.203125 -0.359375q-0.546875 0 -0.96875 0.328125q-0.421875 0.328125 -0.609375 0.890625q-0.28125 0.875 -0.28125 1.921875l0 5.0625l-1.625 0zm12.540802 -1.1875q-0.921875 0.765625 -1.765625 1.09375q-0.828125 0.3125 -1.796875 0.3125q-1.59375 0 -2.453125 -0.78125q-0.859375 -0.78125 -0.859375 -1.984375q0 -0.71875 0.328125 -1.296875q0.328125 -0.59375 0.84375 -0.9375q0.53125 -0.359375 1.1875 -0.546875q0.46875 -0.125 1.453125 -0.25q1.984375 -0.234375 2.921875 -0.5625q0.015625 -0.34375 0.015625 -0.421875q0 -1.0 -0.46875 -1.421875q-0.625 -0.546875 -1.875 -0.546875q-1.15625 0 -1.703125 0.40625q-0.546875 0.40625 -0.8125 1.421875l-1.609375 -0.21875q0.21875 -1.015625 0.71875 -1.640625q0.5 -0.640625 1.453125 -0.984375q0.953125 -0.34375 2.1875 -0.34375q1.25 0 2.015625 0.296875q0.78125 0.28125 1.140625 0.734375q0.375 0.4375 0.515625 1.109375q0.078125 0.421875 0.078125 1.515625l0 2.1875q0 2.28125 0.109375 2.890625q0.109375 0.59375 0.40625 1.15625l-1.703125 0q-0.265625 -0.515625 -0.328125 -1.1875zm-0.140625 -3.671875q-0.890625 0.375 -2.671875 0.625q-1.015625 0.140625 -1.4375 0.328125q-0.421875 0.1875 -0.65625 0.53125q-0.21875 0.34375 -0.21875 0.78125q0 0.65625 0.5 1.09375q0.5 0.4375 1.453125 0.4375q0.9375 0 1.671875 -0.40625q0.75 -0.421875 1.09375 -1.140625q0.265625 -0.5625 0.265625 -1.640625l0 -0.609375zm10.469452 4.859375l0 -1.21875q-0.90625 1.4375 -2.703125 1.4375q-1.15625 0 -2.125 -0.640625q-0.96875 -0.640625 -1.5 -1.78125q-0.53125 -1.140625 -0.53125 -2.625q0 -1.453125 0.484375 -2.625q0.484375 -1.1875 1.4375 -1.8125q0.96875 -0.625 2.171875 -0.625q0.875 0 1.546875 0.375q0.6875 0.359375 1.109375 0.953125l0 -4.796875l1.640625 0l0 13.359375l-1.53125 0zm-5.171875 -4.828125q0 1.859375 0.78125 2.78125q0.78125 0.921875 1.84375 0.921875q1.078125 0 1.828125 -0.875q0.75 -0.890625 0.75 -2.6875q0 -1.984375 -0.765625 -2.90625q-0.765625 -0.9375 -1.890625 -0.9375q-1.078125 0 -1.8125 0.890625q-0.734375 0.890625 -0.734375 2.8125zm9.281982 -6.640625l0 -1.890625l1.640625 0l0 1.890625l-1.640625 0zm0 11.46875l0 -9.671875l1.640625 0l0 9.671875l-1.640625 0zm10.769806 -3.109375l1.6875 0.203125q-0.40625 1.484375 -1.484375 2.3125q-1.078125 0.8125 -2.765625 0.8125q-2.125 0 -3.375 -1.296875q-1.234375 -1.3125 -1.234375 -3.671875q0 -2.453125 1.25 -3.796875q1.265625 -1.34375 3.265625 -1.34375q1.9375 0 3.15625 1.328125q1.234375 1.3125 1.234375 3.703125q0 0.15625 0 0.4375l-7.21875 0q0.09375 1.59375 0.90625 2.453125q0.8125 0.84375 2.015625 0.84375q0.90625 0 1.546875 -0.46875q0.640625 -0.484375 1.015625 -1.515625zm-5.390625 -2.65625l5.40625 0q-0.109375 -1.21875 -0.625 -1.828125q-0.78125 -0.953125 -2.03125 -0.953125q-1.125 0 -1.90625 0.765625q-0.765625 0.75 -0.84375 2.015625zm9.141357 5.765625l0 -9.671875l1.46875 0l0 1.375q1.0625 -1.59375 3.078125 -1.59375q0.875 0 1.609375 0.3125q0.734375 0.3125 1.09375 0.828125q0.375 0.5 0.515625 1.203125q0.09375 0.453125 0.09375 1.59375l0 5.953125l-1.640625 0l0 -5.890625q0 -1.0 -0.203125 -1.484375q-0.1875 -0.5 -0.671875 -0.796875q-0.484375 -0.296875 -1.140625 -0.296875q-1.046875 0 -1.8125 0.671875q-0.75 0.65625 -0.75 2.515625l0 5.28125l-1.640625 0zm13.953827 -1.46875l0.234375 1.453125q-0.6875 0.140625 -1.234375 0.140625q-0.890625 0 -1.390625 -0.28125q-0.484375 -0.28125 -0.6875 -0.734375q-0.203125 -0.46875 -0.203125 -1.9375l0 -5.578125l-1.203125 0l0 -1.265625l1.203125 0l0 -2.390625l1.625 -0.984375l0 3.375l1.65625 0l0 1.265625l-1.65625 0l0 5.671875q0 0.6875 0.078125 0.890625q0.09375 0.203125 0.28125 0.328125q0.203125 0.109375 0.578125 0.109375q0.265625 0 0.71875 -0.0625zm0.9489441 -1.421875l1.625 -0.25q0.125 0.96875 0.75 1.5q0.625 0.515625 1.75 0.515625q1.125 0 1.671875 -0.453125q0.546875 -0.46875 0.546875 -1.09375q0 -0.546875 -0.484375 -0.875q-0.328125 -0.21875 -1.671875 -0.546875q-1.8125 -0.46875 -2.515625 -0.796875q-0.6875 -0.328125 -1.046875 -0.90625q-0.359375 -0.59375 -0.359375 -1.3125q0 -0.640625 0.296875 -1.1875q0.296875 -0.5625 0.8125 -0.921875q0.375 -0.28125 1.03125 -0.46875q0.671875 -0.203125 1.421875 -0.203125q1.140625 0 2.0 0.328125q0.859375 0.328125 1.265625 0.890625q0.421875 0.5625 0.578125 1.5l-1.609375 0.21875q-0.109375 -0.75 -0.640625 -1.171875q-0.515625 -0.421875 -1.46875 -0.421875q-1.140625 0 -1.625 0.375q-0.46875 0.375 -0.46875 0.875q0 0.3125 0.1875 0.578125q0.203125 0.265625 0.640625 0.4375q0.234375 0.09375 1.4375 0.421875q1.75 0.453125 2.4375 0.75q0.6875 0.296875 1.078125 0.859375q0.390625 0.5625 0.390625 1.40625q0 0.828125 -0.484375 1.546875q-0.46875 0.71875 -1.375 1.125q-0.90625 0.390625 -2.046875 0.390625q-1.875 0 -2.875 -0.78125q-0.984375 -0.78125 -1.25 -2.328125z" fill-rule="nonzero"/><path fill="#fff2cc" d="m590.584 186.0l0 98.48819l-24.031494 0l0 -98.48819z" fill-rule="evenodd"/><path stroke="#000000" stroke-width="1.0" stroke-linejoin="round" stroke-linecap="butt" d="m590.584 186.0l0 98.48819l-24.031494 0l0 -98.48819z" fill-rule="evenodd"/><path fill="#000000" d="m574.0482 206.31831l8.59375 3.296875l0 1.21875l-8.59375 3.515625l0 -1.28125l2.609375 -1.015625l0 -3.578125l-2.609375 -0.953125l0 -1.203125zm3.53125 2.484375l0 2.90625l2.375 -0.890625q1.078125 -0.421875 1.78125 -0.609375q-0.828125 -0.171875 -1.640625 -0.46875l-2.515625 -0.9375zm-3.53125 6.5820312l5.40625 0l0 -0.9375l0.8125 0l0 0.9375l0.671875 0q0.625 0 0.921875 0.109375q0.421875 0.15625 0.671875 0.53125q0.25 0.390625 0.25 1.078125q0 0.453125 -0.109375 0.984375l-0.90625 -0.15625q0.046875 -0.328125 0.046875 -0.625q0 -0.484375 -0.203125 -0.6875q-0.203125 -0.1875 -0.765625 -0.1875l-0.578125 0l0 1.21875l-0.8125 0l0 -1.21875l-5.40625 0l0 -1.046875zm0 3.1171875l5.40625 0l0 -0.9375l0.8125 0l0 0.9375l0.671875 0q0.625 0 0.921875 0.109375q0.421875 0.15625 0.671875 0.53125q0.25 0.390625 0.25 1.078125q0 0.453125 -0.109375 0.984375l-0.90625 -0.15625q0.046875 -0.328125 0.046875 -0.625q0 -0.484375 -0.203125 -0.6875q-0.203125 -0.1875 -0.765625 -0.1875l-0.578125 0l0 1.21875l-0.8125 0l0 -1.21875l-5.40625 0l0 -1.046875zm3.109375 2.6933594q1.734375 0 2.5625 0.953125q0.6875 0.796875 0.6875 1.953125q0 1.28125 -0.84375 2.09375q-0.828125 0.828125 -2.3125 0.828125q-1.203125 0 -1.890625 -0.359375q-0.6875 -0.359375 -1.078125 -1.0625q-0.375 -0.6875 -0.375 -1.5q0 -1.296875 0.828125 -2.109375q0.84375 -0.796875 2.421875 -0.796875zm0 1.078125q-1.1875 0 -1.78125 0.515625q-0.59375 0.53125 -0.59375 1.3125q0 0.796875 0.59375 1.3125q0.59375 0.515625 1.8125 0.515625q1.15625 0 1.75 -0.53125q0.59375 -0.515625 0.59375 -1.296875q0 -0.78125 -0.59375 -1.3125q-0.578125 -0.515625 -1.78125 -0.515625zm-3.109375 5.970703l6.21875 0l0 0.953125l-0.9375 0q0.65625 0.359375 0.859375 0.65625q0.21875 0.3125 0.21875 0.6875q0 0.53125 -0.328125 1.078125l-0.984375 -0.359375q0.234375 -0.390625 0.234375 -0.765625q0 -0.359375 -0.21875 -0.640625q-0.203125 -0.265625 -0.578125 -0.375q-0.5625 -0.1875 -1.21875 -0.1875l-3.265625 0l0 -1.046875zm0 8.042969l0.78125 0q-0.921875 -0.59375 -0.921875 -1.734375q0 -0.75 0.40625 -1.375q0.421875 -0.625 1.15625 -0.96875q0.734375 -0.34375 1.6875 -0.34375q0.921875 0 1.6875 0.3125q0.765625 0.3125 1.15625 0.9375q0.40625 0.625 0.40625 1.390625q0 0.5625 -0.234375 1.0q-0.234375 0.4375 -0.609375 0.71875l3.078125 0l0 1.046875l-8.59375 0l0 -0.984375zm3.109375 -3.328125q-1.203125 0 -1.796875 0.5q-0.578125 0.5 -0.578125 1.1875q0 0.6875 0.5625 1.171875q0.5625 0.484375 1.71875 0.484375q1.28125 0 1.875 -0.5q0.59375 -0.484375 0.59375 -1.203125q0 -0.703125 -0.578125 -1.171875q-0.5625 -0.46875 -1.796875 -0.46875zm-2.34375 10.033203q-0.5 -0.59375 -0.703125 -1.140625q-0.203125 -0.53125 -0.203125 -1.15625q0 -1.03125 0.5 -1.578125q0.5 -0.546875 1.28125 -0.546875q0.453125 0 0.828125 0.203125q0.390625 0.203125 0.609375 0.546875q0.234375 0.34375 0.34375 0.765625q0.09375 0.296875 0.171875 0.9375q0.140625 1.265625 0.359375 1.875q0.21875 0 0.265625 0q0.65625 0 0.921875 -0.296875q0.34375 -0.40625 0.34375 -1.203125q0 -0.734375 -0.265625 -1.09375q-0.25 -0.359375 -0.90625 -0.53125l0.140625 -1.03125q0.65625 0.140625 1.0625 0.46875q0.40625 0.328125 0.625 0.9375q0.21875 0.609375 0.21875 1.40625q0 0.796875 -0.1875 1.296875q-0.1875 0.5 -0.46875 0.734375q-0.28125 0.234375 -0.71875 0.328125q-0.265625 0.046875 -0.96875 0.046875l-1.40625 0q-1.46875 0 -1.859375 0.0625q-0.390625 0.078125 -0.75 0.28125l0 -1.109375q0.328125 -0.15625 0.765625 -0.203125zm2.359375 -0.09375q-0.234375 -0.578125 -0.40625 -1.71875q-0.09375 -0.65625 -0.21875 -0.921875q-0.109375 -0.265625 -0.328125 -0.421875q-0.21875 -0.140625 -0.5 -0.140625q-0.421875 0 -0.703125 0.3125q-0.28125 0.328125 -0.28125 0.9375q0 0.609375 0.265625 1.078125q0.265625 0.484375 0.734375 0.703125q0.359375 0.171875 1.046875 0.171875l0.390625 0zm-3.125 2.7050781l6.21875 0l0 0.9375l-0.875 0q1.015625 0.6875 1.015625 1.984375q0 0.5625 -0.203125 1.03125q-0.203125 0.484375 -0.53125 0.71875q-0.328125 0.234375 -0.765625 0.328125q-0.296875 0.046875 -1.03125 0.046875l-3.828125 0l0 -1.046875l3.78125 0q0.65625 0 0.96875 -0.125q0.3125 -0.125 0.5 -0.4375q0.203125 -0.3125 0.203125 -0.734375q0 -0.671875 -0.4375 -1.171875q-0.421875 -0.484375 -1.609375 -0.484375l-3.40625 0l0 -1.046875zm2.28125 10.736313l-0.140625 1.03125q-1.0625 -0.171875 -1.671875 -0.875q-0.609375 -0.70310974 -0.609375 -1.7187347q0 -1.28125 0.828125 -2.0625q0.84375 -0.765625 2.40625 -0.765625q1.0 0 1.75 0.328125q0.765625 0.34375 1.140625 1.015625q0.375 0.6875 0.375 1.5q0 1.0 -0.515625 1.6406097q-0.5 0.65625 -1.453125 0.84375l-0.15625 -1.03125q0.625 -0.140625 0.9375 -0.51560974q0.328125 -0.375 0.328125 -0.90625q0 -0.796875 -0.578125 -1.296875q-0.5625 -0.5 -1.796875 -0.5q-1.265625 0 -1.828125 0.484375q-0.5625 0.484375 -0.5625 1.25q0 0.625 0.375 1.03125q0.375 0.42185974 1.171875 0.54685974zm-0.28125 6.1875l-0.125 1.09375q-0.953125 -0.25 -1.484375 -0.953125q-0.53125 -0.703125 -0.53125 -1.78125q0 -1.359375 0.84375 -2.171875q0.84375 -0.796875 2.359375 -0.796875q1.5625 0 2.421875 0.8125q0.875 0.8125 0.875 2.09375q0 1.25 -0.84375 2.03125q-0.84375 0.796875 -2.390625 0.796875q-0.09375 0 -0.28125 0l0 -4.640625q-1.03125 0.0625 -1.578125 0.578125q-0.53125 0.515625 -0.53125 1.296875q0 0.578125 0.296875 0.984375q0.3125 0.421875 0.96875 0.65625zm1.703125 -3.453125l0 3.46875q0.796875 -0.0625 1.1875 -0.390625q0.609375 -0.515625 0.609375 -1.3125q0 -0.734375 -0.484375 -1.234375q-0.484375 -0.484375 -1.3125 -0.53125z" fill-rule="nonzero"/><path fill="#cfe2f3" d="m538.11456 162.69292l14.550781 0l0 -2.0393677l7.968872 4.0787354l-7.968872 4.0787354l0 -2.0393677l-14.550781 0z" fill-rule="evenodd"/><path stroke="#000000" stroke-width="1.0" stroke-linejoin="round" stroke-linecap="butt" d="m538.11456 162.69292l14.550781 0l0 -2.0393677l7.968872 4.0787354l-7.968872 4.0787354l0 -2.0393677l-14.550781 0z" fill-rule="evenodd"/><path fill="#cfe2f3" d="m538.11456 195.6378l14.550781 0l0 -2.039383l7.968872 4.0787506l-7.968872 4.0787354l0 -2.0393677l-14.550781 0z" fill-rule="evenodd"/><path stroke="#000000" stroke-width="1.0" stroke-linejoin="round" stroke-linecap="butt" d="m538.11456 195.6378l14.550781 0l0 -2.039383l7.968872 4.0787506l-7.968872 4.0787354l0 -2.0393677l-14.550781 0z" fill-rule="evenodd"/><path fill="#cfe2f3" d="m612.2533 175.37534l27.35431 0l0 -5.141739l10.283447 10.283463l-10.283447 10.283463l0 -5.1417236l-27.35431 0z" fill-rule="evenodd"/><path stroke="#000000" stroke-width="1.0" stroke-linejoin="round" stroke-linecap="butt" d="m612.2533 175.37534l27.35431 0l0 -5.141739l10.283447 10.283463l-10.283447 10.283463l0 -5.1417236l-27.35431 0z" fill-rule="evenodd"/></g></svg>